<?xml version="1.0" encoding="UTF-8"?>
<svg xmlns="http://www.w3.org/2000/svg" viewBox="0 0 188 340"><path fill="#39B7F5" fill-rule="evenodd" d="M120.68 11.75C110.447 25.997 95.24 47.32 76.5 73.7 45.957 116.695 6.03 172.727 3.098 176.708c-3.519 4.779-3.93 8.229-1.269 10.637C3.48 188.84 8.613 189 54.772 189h51.115l1.556-2.223c2.112-3.014 1.957-5.105-.547-7.372-1.982-1.795-4.619-1.934-45.51-2.405l-43.405-.5 15.681-22c8.625-12.1 21.599-30.325 28.833-40.5 7.233-10.175 24.368-34.25 38.078-53.5l24.927-35 .5 52.331c.481 50.341.574 52.385 2.441 53.75 2.508 1.833 4.578 1.794 7.336-.138l2.223-1.556V66.598c0-60.042-.094-63.373-1.829-64.943C135.165.745 133.167 0 131.731 0c-2.188 0-3.979 1.904-11.051 11.75M81.223 151.557c-2.74 1.918-2.95 6.475-.406 8.777 1.618 1.465 6.607 1.673 45.552 1.905l43.735.261-3.802 5.183c-3.677 5.012-30.346 42.464-80.123 112.517-13.17 18.535-24.223 33.423-24.562 33.083-.339-.339-.617-23.63-.617-51.759 0-40.265-.275-51.518-1.294-52.912-1.964-2.685-7.801-1.825-9.418 1.388-1.752 3.481-1.862 122.647-.117 126.477 1.365 2.996 4.779 4.156 7.672 2.607 1.116-.597 8.667-10.423 16.778-21.835l46.732-65.749c17.59-24.75 36.069-50.711 41.065-57.691 24.922-34.827 25.731-36.075 25.087-38.751-1.235-5.141-.35-5.058-53.974-5.058-43.713 0-50.369.198-52.308 1.557"/></svg>
